<?xml version="1.0" encoding="utf-8"?>
<!-- Generator: Adobe Illustrator 21.1.0, SVG Export Plug-In . SVG Version: 6.00 Build 0)  -->
<svg version="1.1" id="Layer_1" xmlns="http://www.w3.org/2000/svg" xmlns:xlink="http://www.w3.org/1999/xlink" x="0px" y="0px"
	 viewBox="0 0 24 24" style="enable-background:new 0 0 24 24;" xml:space="preserve">
<style type="text/css">
	.st0{fill:#1DA1F2;}
	.st1{fill:#FFFFFF;}
</style>
<g>
	<circle class="st0" cx="12" cy="12" r="10"/>
	<path class="st1" d="M16,11.6l-6-3.8C9.8,7.6,9.5,7.7,9.3,7.9C9.3,8,9.3,8.1,9.3,8.2v7.6c0,0.3,0.2,0.5,0.5,0.5
		c0.1,0,0.2,0,0.3-0.1l6-3.8c0.1-0.1,0.2-0.3,0.2-0.4S16.2,11.7,16,11.6z"/>
	<path class="st1" d="M12,22.8C6.1,22.8,1.3,17.9,1.3,12S6.1,1.3,12,1.3S22.8,6.1,22.8,12S17.9,22.8,12,22.8z M12,2.8
		c-5.1,0-9.3,4.2-9.3,9.3s4.2,9.3,9.3,9.3s9.3-4.1,9.3-9.3S17.1,2.8,12,2.8z"/>
</g>
</svg>
