<?xml version="1.0"?>
<svg xmlns="http://www.w3.org/2000/svg" height="512px" viewBox="0 0 512 512" width="512px" class=""><g><path d="m74 84c5.523438 0 10-4.476562 10-10v-20.886719h274c5.523438 0 10-4.476562 10-10 0-5.523437-4.476562-10-10-10h-274v-23.113281c0-5.523438-4.476562-10-10-10h-64c-5.523438 0-10 4.476562-10 10v64c0 5.523438 4.476562 10 10 10h23.933594v344h-23.933594c-5.523438 0-10 4.476562-10 10v64c0 5.523438 4.476562 10 10 10h64c5.523438 0 10-4.476562 10-10v-64c0-5.523438-4.476562-10-10-10h-20.066406v-344zm-10 408h-44v-44h44zm-44-472h44v44h-44zm0 0" data-original="#000000" class="active-path" data-old_color="#000000" fill="#D97077"/><path d="m502 84c5.523438 0 10-4.476562 10-10v-64c0-5.523438-4.476562-10-10-10h-64c-5.523438 0-10 4.476562-10 10v64c0 5.523438 4.476562 10 10 10h22.820312v344h-22.820312c-5.523438 0-10 4.476562-10 10v22h-274c-5.523438 0-10 4.476562-10 10s4.476562 10 10 10h274v22c0 5.523438 4.476562 10 10 10h64c5.523438 0 10-4.476562 10-10v-64c0-5.523438-4.476562-10-10-10h-21.179688v-344zm-10 408h-44v-44h44zm-44-472h44v44h-44zm0 0" data-original="#000000" class="active-path" data-old_color="#000000" fill="#D97077"/><path d="m398 53.109375c2.628906 0 5.210938-1.058594 7.070312-2.929687 1.859376-1.859376 2.929688-4.441407 2.929688-7.070313s-1.070312-5.210937-2.929688-7.070313c-1.859374-1.859374-4.441406-2.929687-7.070312-2.929687s-5.210938 1.070313-7.070312 2.929687c-1.859376 1.859376-2.929688 4.441407-2.929688 7.070313 0 2.640625 1.070312 5.210937 2.929688 7.070313 1.859374 1.871093 4.441406 2.929687 7.070312 2.929687zm0 0" data-original="#000000" class="active-path" data-old_color="#000000" fill="#D97077"/><path d="m144.0625 195.835938c5.523438 0 10-4.480469 10-10v-20.722657h64.066406v190.886719h-50.449218c-5.523438 0-10 4.476562-10 10v48c0 5.523438 4.476562 10 10 10h176.644531c5.519531 0 10-4.476562 10-10v-48c0-5.523438-4.480469-10-10-10h-50.195313v-190.886719h63.789063v20.722657c0 5.519531 4.476562 10 10 10h40c5.523437 0 10-4.480469 10-10v-86.722657c0-5.523437-4.476563-10-10-10h-303.855469c-5.523438 0-10 4.476563-10 10v86.722657c0 5.519531 4.476562 10 10 10zm-30-86.722657h283.855469v66.722657h-20v-20.722657c0-5.523437-4.480469-10-10-10h-83.789063c-5.523437 0-10 4.476563-10 10v210.886719c0 5.523438 4.476563 10 10 10h50.191406v28h-156.640624v-28h50.449218c5.519532 0 10-4.476562 10-10v-210.886719c0-5.523437-4.480468-10-10-10h-84.066406c-5.523438 0-10 4.476563-10 10v20.722657h-20zm0 0" data-original="#000000" class="active-path" data-old_color="#000000" fill="#D97077"/><path d="m114 460c-2.628906 0-5.210938 1.070312-7.070312 2.929688-1.859376 1.859374-2.929688 4.441406-2.929688 7.070312s1.070312 5.210938 2.929688 7.070312c1.859374 1.859376 4.441406 2.929688 7.070312 2.929688s5.210938-1.070312 7.070312-2.929688c1.859376-1.859374 2.929688-4.441406 2.929688-7.070312s-1.070312-5.210938-2.929688-7.070312c-1.859374-1.859376-4.441406-2.929688-7.070312-2.929688zm0 0" data-original="#000000" class="active-path" data-old_color="#000000" fill="#D97077"/></g> </svg>
